<svg width="60" height="60" viewBox="0 0 60 60" fill="none" xmlns="http://www.w3.org/2000/svg">
<rect width="60" height="60" rx="15" fill="#4ECDC4" fill-opacity="0.15"/>
<path d="M37.5 20H36.25V18.75C36.25 18.4185 36.1183 18.1005 35.8839 17.8661C35.6495 17.6317 35.3315 17.5 35 17.5C34.6685 17.5 34.3505 17.6317 34.1161 17.8661C33.8817 18.1005 33.75 18.4185 33.75 18.75V20H26.25V18.75C26.25 18.4185 26.1183 18.1005 25.8839 17.8661C25.6495 17.6317 25.3315 17.5 25 17.5C24.6685 17.5 24.3505 17.6317 24.1161 17.8661C23.8817 18.1005 23.75 18.4185 23.75 18.75V20H22.5C21.5054 20 20.5516 20.3951 19.8483 21.0983C19.1451 21.8016 18.75 22.7554 18.75 23.75V38.75C18.75 39.7446 19.1451 40.6984 19.8483 41.4017C20.5516 42.1049 21.5054 42.5 22.5 42.5H37.5C38.4946 42.5 39.4484 42.1049 40.1517 41.4017C40.8549 40.6984 41.25 39.7446 41.25 38.75V23.75C41.25 22.7554 40.8549 21.8016 40.1517 21.0983C39.4484 20.3951 38.4946 20 37.5 20ZM22.5 22.5H23.75V23.75C23.75 24.0815 23.8817 24.3995 24.1161 24.6339C24.3505 24.8683 24.6685 25 25 25C25.3315 25 25.6495 24.8683 25.8839 24.6339C26.1183 24.3995 26.25 24.0815 26.25 23.75V22.5H33.75V23.75C33.75 24.0815 33.8817 24.3995 34.1161 24.6339C34.3505 24.8683 34.6685 25 35 25C35.3315 25 35.6495 24.8683 35.8839 24.6339C36.1183 24.3995 36.25 24.0815 36.25 23.75V22.5H37.5C37.8315 22.5 38.1495 22.6317 38.3839 22.8661C38.6183 23.1005 38.75 23.4185 38.75 23.75V28.75H21.25V23.75C21.25 23.4185 21.3817 23.1005 21.6161 22.8661C21.8505 22.6317 22.1685 22.5 22.5 22.5ZM37.5 40H22.5C22.1685 40 21.8505 39.8683 21.6161 39.6339C21.3817 39.3995 21.25 39.0815 21.25 38.75V31.25H38.75V38.75C38.75 39.0815 38.6183 39.3995 38.3839 39.6339C38.1495 39.8683 37.8315 40 37.5 40Z" fill="#4ECDC4"/>
<path d="M25 36.25C25.6904 36.25 26.25 35.6904 26.25 35C26.25 34.3096 25.6904 33.75 25 33.75C24.3096 33.75 23.75 34.3096 23.75 35C23.75 35.6904 24.3096 36.25 25 36.25Z" fill="#4ECDC4"/>
<path d="M35 33.75H30C29.6685 33.75 29.3505 33.8817 29.1161 34.1161C28.8817 34.3505 28.75 34.6685 28.75 35C28.75 35.3315 28.8817 35.6495 29.1161 35.8839C29.3505 36.1183 29.6685 36.25 30 36.25H35C35.3315 36.25 35.6495 36.1183 35.8839 35.8839C36.1183 35.6495 36.25 35.3315 36.25 35C36.25 34.6685 36.1183 34.3505 35.8839 34.1161C35.6495 33.8817 35.3315 33.75 35 33.75Z" fill="#4ECDC4"/>
</svg>
