<svg width="30" height="30" viewBox="0 0 30 30" fill="none" xmlns="http://www.w3.org/2000/svg">
<path d="M24.375 25.625H5.625C4.80826 25.635 4.02083 25.321 3.43512 24.7517C2.84942 24.1824 2.51317 23.4042 2.5 22.5875V7.41249C2.51317 6.59579 2.84942 5.8176 3.43512 5.24829C4.02083 4.67898 4.80826 4.36496 5.625 4.37499H11.375C11.5596 4.37621 11.7417 4.41832 11.9081 4.49829C12.0745 4.57825 12.2212 4.6941 12.3375 4.83749L15.5875 8.81249H24.3375C24.7451 8.80253 25.1505 8.87339 25.5306 9.02096C25.9106 9.16854 26.2576 9.38991 26.5516 9.67231C26.8457 9.95471 27.0808 10.2925 27.2436 10.6663C27.4064 11.0401 27.4935 11.4424 27.5 11.85V22.5875C27.4868 23.4042 27.1506 24.1824 26.5649 24.7517C25.9792 25.321 25.1917 25.635 24.375 25.625ZM5 17.2V22.5875C5.00471 22.6642 5.02474 22.7392 5.05892 22.808C5.0931 22.8768 5.14073 22.9381 5.199 22.9882C5.25726 23.0383 5.32498 23.0762 5.39815 23.0997C5.47132 23.1232 5.54846 23.1318 5.625 23.125H24.375C24.4515 23.1318 24.5287 23.1232 24.6019 23.0997C24.675 23.0762 24.7427 23.0383 24.801 22.9882C24.8593 22.9381 24.9069 22.8768 24.9411 22.808C24.9753 22.7392 24.9953 22.6642 25 22.5875V11.85C24.9953 11.7733 24.9753 11.6983 24.9411 11.6295C24.9069 11.5606 24.8593 11.4994 24.801 11.4493C24.7427 11.3991 24.675 11.3612 24.6019 11.3377C24.5287 11.3142 24.4515 11.3057 24.375 11.3125H15C14.8154 11.3113 14.6333 11.2692 14.4669 11.1892C14.3005 11.1092 14.1538 10.9934 14.0375 10.85L10.7875 6.87499H5.625C5.54846 6.86816 5.47132 6.87675 5.39815 6.90024C5.32498 6.92373 5.25726 6.96165 5.199 7.01176C5.14073 7.06187 5.0931 7.12315 5.05892 7.19197C5.02474 7.2608 5.00471 7.33578 5 7.41249V17.2Z" fill="#00B4D8"/>
</svg>
