<svg width="60" height="60" viewBox="0 0 60 60" fill="none" xmlns="http://www.w3.org/2000/svg">
<rect width="60" height="60" rx="15" fill="#0A9D7A" fill-opacity="0.1"/>
<path d="M26.25 18.75H21.25C20.587 18.75 19.9511 19.0134 19.4822 19.4822C19.0134 19.9511 18.75 20.587 18.75 21.25V26.25C18.75 26.913 19.0134 27.5489 19.4822 28.0178C19.9511 28.4866 20.587 28.75 21.25 28.75H26.25C26.913 28.75 27.5489 28.4866 28.0178 28.0178C28.4866 27.5489 28.75 26.913 28.75 26.25V21.25C28.75 20.587 28.4866 19.9511 28.0178 19.4822C27.5489 19.0134 26.913 18.75 26.25 18.75ZM21.25 26.25V21.25H26.25V26.25H21.25Z" fill="#0A9D7A"/>
<path d="M38.75 18.75H33.75C33.087 18.75 32.4511 19.0134 31.9822 19.4822C31.5134 19.9511 31.25 20.587 31.25 21.25V26.25C31.25 26.913 31.5134 27.5489 31.9822 28.0178C32.4511 28.4866 33.087 28.75 33.75 28.75H38.75C39.413 28.75 40.0489 28.4866 40.5178 28.0178C40.9866 27.5489 41.25 26.913 41.25 26.25V21.25C41.25 20.587 40.9866 19.9511 40.5178 19.4822C40.0489 19.0134 39.413 18.75 38.75 18.75ZM33.75 26.25V21.25H38.75V26.25H33.75Z" fill="#0A9D7A"/>
<path d="M26.25 31.25H21.25C20.587 31.25 19.9511 31.5134 19.4822 31.9822C19.0134 32.4511 18.75 33.087 18.75 33.75V38.75C18.75 39.413 19.0134 40.0489 19.4822 40.5178C19.9511 40.9866 20.587 41.25 21.25 41.25H26.25C26.913 41.25 27.5489 40.9866 28.0178 40.5178C28.4866 40.0489 28.75 39.413 28.75 38.75V33.75C28.75 33.087 28.4866 32.4511 28.0178 31.9822C27.5489 31.5134 26.913 31.25 26.25 31.25ZM21.25 38.75V33.75H26.25V38.75H21.25Z" fill="#0A9D7A"/>
<path d="M38.75 31.25H33.75C33.087 31.25 32.4511 31.5134 31.9822 31.9822C31.5134 32.4511 31.25 33.087 31.25 33.75V38.75C31.25 39.413 31.5134 40.0489 31.9822 40.5178C32.4511 40.9866 33.087 41.25 33.75 41.25H38.75C39.413 41.25 40.0489 40.9866 40.5178 40.5178C40.9866 40.0489 41.25 39.413 41.25 38.75V33.75C41.25 33.087 40.9866 32.4511 40.5178 31.9822C40.0489 31.5134 39.413 31.25 38.75 31.25ZM33.75 38.75V33.75H38.75V38.75H33.75Z" fill="#0A9D7A"/>
</svg>
