<svg width="60" height="60" viewBox="0 0 60 60" fill="none" xmlns="http://www.w3.org/2000/svg">
<rect width="60" height="60" rx="15" fill="#E03B8B" fill-opacity="0.1"/>
<path d="M36.25 24.9997H35V22.6372C35 21.3111 34.4732 20.0394 33.5355 19.1017C32.5979 18.164 31.3261 17.6372 30 17.6372C28.6739 17.6372 27.4021 18.164 26.4645 19.1017C25.5268 20.0394 25 21.3111 25 22.6372V24.9997H23.75C22.7554 24.9997 21.8016 25.3948 21.0983 26.0981C20.3951 26.8013 20 27.7551 20 28.7497V38.7497C20 39.7443 20.3951 40.6981 21.0983 41.4014C21.8016 42.1046 22.7554 42.4997 23.75 42.4997H36.25C37.2446 42.4997 38.1984 42.1046 38.9017 41.4014C39.6049 40.6981 40 39.7443 40 38.7497V28.7497C40 27.7551 39.6049 26.8013 38.9017 26.0981C38.1984 25.3948 37.2446 24.9997 36.25 24.9997ZM27.5 22.6372C27.4832 21.9563 27.7368 21.2965 28.2054 20.8022C28.6739 20.3079 29.3192 20.0193 30 19.9997C30.6808 20.0193 31.3261 20.3079 31.7946 20.8022C32.2632 21.2965 32.5168 21.9563 32.5 22.6372V24.9997H27.5V22.6372ZM37.5 38.7497C37.5 39.0812 37.3683 39.3992 37.1339 39.6336C36.8995 39.868 36.5815 39.9997 36.25 39.9997H23.75C23.4185 39.9997 23.1005 39.868 22.8661 39.6336C22.6317 39.3992 22.5 39.0812 22.5 38.7497V28.7497C22.5 28.4182 22.6317 28.1002 22.8661 27.8658C23.1005 27.6314 23.4185 27.4997 23.75 27.4997H36.25C36.5815 27.4997 36.8995 27.6314 37.1339 27.8658C37.3683 28.1002 37.5 28.4182 37.5 28.7497V38.7497Z" fill="#E03B8B"/>
<path d="M30 30C29.2583 30 28.5333 30.2199 27.9166 30.632C27.2999 31.044 26.8193 31.6297 26.5355 32.3149C26.2516 33.0002 26.1774 33.7542 26.3221 34.4816C26.4668 35.209 26.8239 35.8772 27.3484 36.4017C27.8728 36.9261 28.541 37.2833 29.2684 37.4279C29.9958 37.5726 30.7498 37.4984 31.4351 37.2145C32.1203 36.9307 32.706 36.4501 33.118 35.8334C33.5301 35.2167 33.75 34.4917 33.75 33.75C33.75 32.7554 33.3549 31.8016 32.6517 31.0983C31.9484 30.3951 30.9946 30 30 30ZM30 35C29.7528 35 29.5111 34.9267 29.3055 34.7893C29.1 34.652 28.9398 34.4568 28.8452 34.2284C28.7505 33.9999 28.7258 33.7486 28.774 33.5061C28.8223 33.2637 28.9413 33.0409 29.1161 32.8661C29.2909 32.6913 29.5137 32.5722 29.7561 32.524C29.9986 32.4758 30.2499 32.5005 30.4784 32.5952C30.7068 32.6898 30.902 32.85 31.0393 33.0555C31.1767 33.2611 31.25 33.5028 31.25 33.75C31.25 34.0815 31.1183 34.3995 30.8839 34.6339C30.6495 34.8683 30.3315 35 30 35Z" fill="#E03B8B"/>
</svg>
