<svg width="24" height="24" viewBox="0 0 24 24" fill="none" xmlns="http://www.w3.org/2000/svg">
<g clip-path="url(#clip0)">
<path d="M13.0607 10.5001V5.16746C14.2015 5.35988 15.2771 5.82798 16.1967 6.53092C16.3801 6.65664 16.5952 6.72485 16.8179 6.72785C17.5314 6.72785 18.1132 6.15367 18.1207 5.44013C18.1222 5.13413 18.0026 4.84022 17.7875 4.62206C16.4588 3.4843 14.7923 2.81318 13.0456 2.7132V0.925508C13.0456 0.414941 12.632 0.00135878 12.1214 0.00135878C12.1108 -0.000141232 12.1002 -0.000141232 12.0896 -0.000141232C11.5715 -0.00773506 11.1443 0.405894 11.1367 0.925508V2.65259C7.72798 2.89498 5.41009 5.00081 5.41009 7.8035C5.41009 11.2425 8.33399 12.1969 11.1367 12.9544V19.0143C9.65803 18.8159 8.26429 18.2023 7.12198 17.2418C6.90687 17.0706 6.64019 16.9752 6.36447 16.9692C5.66607 17.0176 5.12827 17.6024 5.13732 18.3023C5.13582 18.6083 5.25549 18.9022 5.4706 19.1204C7.03559 20.5293 9.04748 21.3399 11.1518 21.408V23.0745C11.1518 23.0851 11.1533 23.0957 11.1533 23.1063C11.1775 23.6244 11.6184 24.0244 12.1365 23.9986C12.647 23.9986 13.0606 23.5851 13.0606 23.0745V21.3777C17.1965 21.1051 18.863 18.5902 18.863 15.9238C18.8631 12.3484 15.8635 11.2577 13.0607 10.5001ZM11.1519 10.0154C9.50053 9.53058 8.21282 9.03065 8.21282 7.62172C8.21282 6.21278 9.37936 5.19774 11.1519 5.06142V10.0154ZM13.0607 19.0446V13.5301C14.7727 14.0149 16.1058 14.6663 16.0907 16.2571C16.0907 17.4085 15.3029 18.7719 13.0607 19.0446Z" fill="#3066BE"/>
</g>
<defs>
<clipPath id="clip0">
<rect width="24" height="24" fill="white"/>
</clipPath>
</defs>
</svg>
