<svg width="30" height="30" viewBox="0 0 30 30" fill="none" xmlns="http://www.w3.org/2000/svg">
<path d="M25.375 16.7876C25.06 16.6894 24.7191 16.7197 24.4264 16.8719C24.1337 17.0241 23.913 17.2859 23.8125 17.6001C23.222 19.4057 22.0707 20.9757 20.5262 22.0818C18.9817 23.1879 17.1246 23.7723 15.225 23.7501C12.8754 23.7768 10.6112 22.8706 8.92872 21.2304C7.24626 19.5901 6.28294 17.3496 6.25 15.0001C6.28294 12.6506 7.24626 10.4101 8.92872 8.76978C10.6112 7.1295 12.8754 6.22337 15.225 6.25007C17.347 6.24495 19.4036 6.98358 21.0375 8.33757L18.325 7.88757C18.1624 7.86082 17.9962 7.86647 17.8358 7.9042C17.6754 7.94193 17.5241 8.01099 17.3905 8.1074C17.2569 8.20382 17.1437 8.3257 17.0574 8.46602C16.9711 8.60635 16.9133 8.76236 16.8875 8.92507C16.8608 9.08764 16.8664 9.25389 16.9041 9.41426C16.9419 9.57464 17.0109 9.72597 17.1073 9.85956C17.2038 9.99315 17.3256 10.1064 17.466 10.1927C17.6063 10.279 17.7623 10.3367 17.925 10.3626L23.225 11.2376H23.4375C23.5824 11.2374 23.7263 11.212 23.8625 11.1626C23.9083 11.1452 23.9506 11.1198 23.9875 11.0876C24.0771 11.0542 24.1614 11.0079 24.2375 10.9501L24.35 10.8126C24.35 10.7501 24.4625 10.7001 24.5125 10.6251C24.5625 10.5501 24.5125 10.5001 24.575 10.4501C24.6095 10.3773 24.6388 10.3021 24.6625 10.2251L25.6 5.22507C25.6312 5.06092 25.6297 4.89223 25.5957 4.72864C25.5617 4.56505 25.4958 4.40975 25.4018 4.27163C25.3078 4.1335 25.1875 4.01524 25.0478 3.92361C24.9081 3.83198 24.7517 3.76876 24.5875 3.73757C24.4233 3.70638 24.2547 3.70783 24.0911 3.74184C23.9275 3.77584 23.7722 3.84173 23.6341 3.93575C23.3551 4.12563 23.163 4.41855 23.1 4.75007L22.7625 6.56257C20.67 4.74912 17.994 3.75061 15.225 3.75007C12.2124 3.72341 9.31229 4.89294 7.16101 7.00205C5.00972 9.11115 3.78299 11.9876 3.75 15.0001C3.78299 18.0126 5.00972 20.889 7.16101 22.9981C9.31229 25.1072 12.2124 26.2767 15.225 26.2501C17.6664 26.2876 20.0554 25.5402 22.0402 24.118C24.0249 22.6958 25.5006 20.674 26.25 18.3501C26.2974 18.19 26.3123 18.0221 26.2938 17.8562C26.2752 17.6904 26.2237 17.5299 26.1421 17.3842C26.0606 17.2386 25.9507 17.1108 25.8189 17.0083C25.6872 16.9058 25.5362 16.8308 25.375 16.7876Z" fill="#518EF8"/>
</svg>
