<svg width="60" height="60" viewBox="0 0 60 60" fill="none" xmlns="http://www.w3.org/2000/svg">
<path d="M25.7638 42.5C25.1539 42.4964 24.5616 42.2946 24.0763 41.925L21.4888 40C20.8917 39.5344 20.4955 38.8579 20.3816 38.1094C20.2677 37.3608 20.4447 36.5971 20.8763 35.975C21.1047 35.6378 21.2498 35.2513 21.2998 34.8471C21.3498 34.4429 21.3032 34.0327 21.1638 33.65L21.0888 33.45C20.9918 33.1036 20.8145 32.785 20.5712 32.5201C20.328 32.2551 20.0256 32.0512 19.6888 31.925H19.4888C18.7587 31.6795 18.1548 31.1558 17.8085 30.4678C17.4621 29.7797 17.4011 28.9827 17.6388 28.25L18.6638 25C18.7582 24.6235 18.9319 24.2714 19.1733 23.9674C19.4148 23.6635 19.7184 23.4146 20.0638 23.2375C20.3855 23.0718 20.7375 22.973 21.0984 22.9472C21.4594 22.9214 21.8218 22.9692 22.1638 23.0875C22.5362 23.2128 22.9335 23.2453 23.3213 23.1821C23.709 23.1189 24.0755 22.962 24.3888 22.725L24.5513 22.6C24.8349 22.3737 25.0642 22.0866 25.2221 21.76C25.38 21.4333 25.4626 21.0753 25.4638 20.7125V20.4125C25.4605 19.6477 25.7594 18.9125 26.2955 18.367C26.8316 17.8215 27.5615 17.5099 28.3263 17.5H31.5138C31.8859 17.501 32.2542 17.5755 32.5974 17.7192C32.9406 17.863 33.252 18.0731 33.5138 18.3375C34.0642 18.8972 34.3699 19.6525 34.3638 20.4375V20.7875C34.3575 21.1322 34.4322 21.4735 34.5821 21.784C34.7319 22.0945 34.9526 22.3655 35.2263 22.575L35.3638 22.675C35.6444 22.8854 35.9716 23.0248 36.3177 23.0814C36.6638 23.138 37.0184 23.1101 37.3513 23L37.7763 22.8625C38.1364 22.7431 38.5168 22.6975 38.8949 22.7284C39.273 22.7592 39.641 22.8659 39.977 23.042C40.313 23.2182 40.61 23.4602 40.8504 23.7537C41.0909 24.0471 41.2697 24.3859 41.3763 24.75L42.3638 27.9C42.5923 28.628 42.5299 29.4162 42.1896 30.0991C41.8493 30.782 41.2576 31.3065 40.5388 31.5625L40.2888 31.65C39.9211 31.7704 39.5886 31.9793 39.3205 32.2583C39.0525 32.5372 38.857 32.8778 38.7513 33.25C38.6518 33.596 38.6282 33.9594 38.6822 34.3154C38.7361 34.6714 38.8663 35.0115 39.0638 35.3125L39.3888 35.7875C39.8198 36.4131 39.9952 37.1798 39.879 37.9305C39.7628 38.6812 39.3638 39.359 38.7638 39.825L36.2513 41.7625C35.9478 41.9946 35.5999 42.1622 35.2292 42.2548C34.8585 42.3475 34.4727 42.3632 34.0956 42.3012C33.7186 42.2391 33.3582 42.1005 33.0367 41.894C32.7152 41.6874 32.4395 41.4172 32.2263 41.1L32.0763 40.8875C31.8716 40.5798 31.5923 40.329 31.2644 40.1586C30.9365 39.9881 30.5708 39.9034 30.2013 39.9125C29.8488 39.9216 29.5033 40.0135 29.1929 40.1807C28.8824 40.3479 28.6155 40.5857 28.4138 40.875L28.1263 41.2875C27.9131 41.6069 27.6368 41.8793 27.3143 42.0878C26.9918 42.2963 26.6301 42.4366 26.2513 42.5C26.0892 42.5159 25.9259 42.5159 25.7638 42.5ZM20.5013 29.525C21.2072 29.7767 21.8441 30.1906 22.3608 30.7334C22.8775 31.2761 23.2596 31.9326 23.4763 32.65V32.8C23.7462 33.5458 23.8349 34.3451 23.7349 35.1319C23.6349 35.9187 23.3492 36.6704 22.9013 37.325C22.8223 37.4123 22.7785 37.5259 22.7785 37.6437C22.7785 37.7616 22.8223 37.8752 22.9013 37.9625L25.5888 40C25.6239 40.0275 25.6644 40.0473 25.7078 40.0578C25.7511 40.0684 25.7961 40.0696 25.8399 40.0613C25.8838 40.053 25.9253 40.0354 25.9617 40.0098C25.9982 39.9841 26.0287 39.9509 26.0513 39.9125L26.3388 39.5C26.7724 38.8735 27.3515 38.3614 28.0264 38.0077C28.7013 37.6541 29.4519 37.4693 30.2138 37.4693C30.9758 37.4693 31.7264 37.6541 32.4013 38.0077C33.0761 38.3614 33.6552 38.8735 34.0888 39.5L34.2388 39.725C34.2926 39.8012 34.3728 39.8547 34.4638 39.875C34.5056 39.8812 34.5482 39.8788 34.589 39.8681C34.6298 39.8573 34.668 39.8384 34.7013 39.8125L37.2763 37.8625C37.3665 37.791 37.4258 37.6876 37.442 37.5737C37.4583 37.4598 37.4303 37.3439 37.3638 37.25L37.0388 36.775C36.6154 36.1575 36.336 35.4528 36.2213 34.7129C36.1066 33.9729 36.1596 33.2167 36.3763 32.5C36.596 31.7467 36.9934 31.0572 37.535 30.4895C38.0766 29.9217 38.7467 29.4924 39.4888 29.2375L39.7388 29.15C39.843 29.1083 39.9265 29.027 39.971 28.924C40.0155 28.8209 40.0174 28.7045 39.9763 28.6L39.0013 25.4875C38.9779 25.433 38.9437 25.3839 38.9007 25.3431C38.8577 25.3023 38.8069 25.2706 38.7513 25.25C38.7145 25.2313 38.6738 25.2216 38.6326 25.2216C38.5913 25.2216 38.5506 25.2313 38.5138 25.25L38.0888 25.3875C37.3699 25.6248 36.6041 25.6839 35.8572 25.5598C35.1104 25.4357 34.4049 25.1321 33.8013 24.675L33.7513 24.5625C33.1722 24.1239 32.7026 23.557 32.3794 22.9064C32.0563 22.2557 31.8883 21.539 31.8888 20.8125V20.425C31.8911 20.3045 31.8462 20.1879 31.7638 20.1C31.6919 20.035 31.5983 19.9993 31.5013 20H28.3263C28.2754 20.0032 28.2256 20.0164 28.1798 20.0389C28.134 20.0613 28.0931 20.0926 28.0594 20.131C28.0257 20.1693 27.9999 20.2139 27.9835 20.2622C27.9671 20.3105 27.9604 20.3616 27.9638 20.4125V20.725C27.9639 21.4713 27.7926 22.2077 27.4632 22.8773C27.1338 23.547 26.655 24.1321 26.0638 24.5875L25.9013 24.7125C25.2635 25.1981 24.516 25.5194 23.7247 25.648C22.9334 25.7766 22.1226 25.7086 21.3638 25.45C21.307 25.4309 21.2456 25.4309 21.1888 25.45C21.1183 25.4929 21.0652 25.5593 21.0388 25.6375L20.0013 28.9C19.9652 29.0111 19.9736 29.1319 20.025 29.2369C20.0763 29.3419 20.1664 29.4228 20.2763 29.4625L20.5013 29.525Z" fill="#E03B8B"/>
<path d="M30 34.375C29.1347 34.375 28.2888 34.1184 27.5694 33.6377C26.8499 33.157 26.2892 32.4737 25.958 31.6742C25.6269 30.8748 25.5403 29.9951 25.7091 29.1465C25.8779 28.2978 26.2946 27.5183 26.9064 26.9064C27.5183 26.2946 28.2978 25.8779 29.1465 25.7091C29.9951 25.5403 30.8748 25.6269 31.6742 25.958C32.4737 26.2892 33.157 26.8499 33.6377 27.5694C34.1184 28.2888 34.375 29.1347 34.375 30C34.375 31.1603 33.9141 32.2731 33.0936 33.0936C32.2731 33.9141 31.1603 34.375 30 34.375ZM30 28.125C29.6292 28.125 29.2667 28.235 28.9583 28.441C28.65 28.647 28.4096 28.9399 28.2677 29.2825C28.1258 29.6251 28.0887 30.0021 28.161 30.3658C28.2334 30.7295 28.412 31.0636 28.6742 31.3258C28.9364 31.5881 29.2705 31.7666 29.6342 31.839C29.9979 31.9113 30.3749 31.8742 30.7175 31.7323C31.0601 31.5904 31.353 31.35 31.559 31.0417C31.765 30.7334 31.875 30.3708 31.875 30C31.875 29.5027 31.6775 29.0258 31.3258 28.6742C30.9742 28.3225 30.4973 28.125 30 28.125Z" fill="#E03B8B"/>
<rect width="60" height="60" rx="15" fill="#E03B8B" fill-opacity="0.1"/>
</svg>
