<svg width="60" height="60" viewBox="0 0 60 60" fill="none" xmlns="http://www.w3.org/2000/svg">
<rect width="60" height="60" rx="15" fill="#00B4D8" fill-opacity="0.1"/>
<path d="M25.8008 21.5373C25.6745 21.432 25.5286 21.3527 25.3716 21.3039C25.2146 21.2551 25.0495 21.2377 24.8858 21.2528C24.7221 21.2679 24.5629 21.3152 24.4175 21.3919C24.2721 21.4686 24.1432 21.5732 24.0383 21.6998L17.7883 29.1998C17.6044 29.4234 17.5039 29.704 17.5039 29.9935C17.5039 30.283 17.6044 30.5636 17.7883 30.7873L23.8258 38.2873C23.9434 38.4323 24.0921 38.5491 24.2608 38.6291C24.4295 38.7092 24.614 38.7504 24.8008 38.7498C25.0373 38.7506 25.2692 38.6842 25.4696 38.5585C25.6699 38.4327 25.8305 38.2527 25.9326 38.0393C26.0347 37.826 26.0742 37.588 26.0464 37.3531C26.0186 37.1182 25.9248 36.896 25.7758 36.7123L20.3633 29.9998L25.9633 23.2998C26.0685 23.1734 26.1478 23.0276 26.1966 22.8706C26.2454 22.7136 26.2628 22.5485 26.2477 22.3848C26.2326 22.2211 26.1853 22.0619 26.1087 21.9165C26.032 21.7711 25.9273 21.6422 25.8008 21.5373Z" fill="#00B4D8"/>
<path d="M42.2233 29.2123L36.2483 21.7123C36.1451 21.5839 36.0176 21.4771 35.8731 21.3981C35.7285 21.3192 35.5698 21.2696 35.406 21.2521C35.2422 21.2347 35.0766 21.2498 34.9187 21.2966C34.7608 21.3434 34.6137 21.4209 34.4858 21.5248C34.3574 21.6279 34.2506 21.7554 34.1717 21.9C34.0927 22.0445 34.0431 22.2033 34.0256 22.367C34.0082 22.5308 34.0233 22.6964 34.0701 22.8544C34.1169 23.0123 34.1945 23.1594 34.2983 23.2873L39.6358 29.9998L34.0358 36.7123C33.9305 36.8386 33.8512 36.9844 33.8024 37.1414C33.7536 37.2984 33.7363 37.4635 33.7514 37.6272C33.7665 37.791 33.8137 37.9501 33.8904 38.0955C33.9671 38.241 34.0717 38.3698 34.1983 38.4748C34.4249 38.6566 34.7078 38.7539 34.9983 38.7498C35.1819 38.7501 35.3634 38.7099 35.5297 38.6321C35.6961 38.5544 35.8433 38.4409 35.9608 38.2998L42.2108 30.7998C42.3964 30.5776 42.4991 30.2978 42.5014 30.0083C42.5037 29.7187 42.4054 29.4374 42.2233 29.2123Z" fill="#00B4D8"/>
</svg>
