<svg width="60" height="60" viewBox="0 0 60 60" fill="none" xmlns="http://www.w3.org/2000/svg">
<rect width="60" height="60" rx="15" fill="#357266" fill-opacity="0.1"/>
<path d="M38.75 26.25C37.9763 26.2522 37.2222 26.4936 36.5912 26.9412C35.9601 27.3888 35.4829 28.0206 35.225 28.75H18.75C18.4185 28.75 18.1005 28.8817 17.8661 29.1161C17.6317 29.3506 17.5 29.6685 17.5 30C17.5 30.3315 17.6317 30.6495 17.8661 30.8839C18.1005 31.1183 18.4185 31.25 18.75 31.25H35.225C35.4543 31.8986 35.8576 32.4716 36.3908 32.9064C36.924 33.3411 37.5665 33.6208 38.248 33.7148C38.9294 33.8088 39.6237 33.7136 40.2546 33.4395C40.8856 33.1654 41.429 32.723 41.8254 32.1608C42.2218 31.5985 42.4559 30.938 42.5021 30.2516C42.5482 29.5652 42.4047 28.8794 42.0872 28.2691C41.7696 27.6588 41.2903 27.1477 40.7017 26.7915C40.1132 26.4354 39.4379 26.2481 38.75 26.25ZM38.75 31.25C38.5028 31.25 38.2611 31.1767 38.0555 31.0394C37.85 30.902 37.6898 30.7068 37.5951 30.4784C37.5005 30.25 37.4758 29.9986 37.524 29.7562C37.5723 29.5137 37.6913 29.2909 37.8661 29.1161C38.0409 28.9413 38.2637 28.8223 38.5061 28.774C38.7486 28.7258 38.9999 28.7506 39.2284 28.8452C39.4568 28.9398 39.652 29.1 39.7893 29.3056C39.9267 29.5111 40 29.7528 40 30C40 30.3315 39.8683 30.6495 39.6339 30.8839C39.3995 31.1183 39.0815 31.25 38.75 31.25Z" fill="#357266"/>
<path d="M18.75 23.7499H20.225C20.4878 24.4738 20.967 25.0993 21.5977 25.5413C22.2284 25.9834 22.9799 26.2205 23.75 26.2205C24.5201 26.2205 25.2716 25.9834 25.9023 25.5413C26.533 25.0993 27.0122 24.4738 27.275 23.7499H41.25C41.5815 23.7499 41.8995 23.6182 42.1339 23.3838C42.3683 23.1494 42.5 22.8314 42.5 22.4999C42.5 22.1684 42.3683 21.8504 42.1339 21.616C41.8995 21.3816 41.5815 21.2499 41.25 21.2499H27.275C27.0122 20.526 26.533 19.9005 25.9023 19.4584C25.2716 19.0164 24.5201 18.7793 23.75 18.7793C22.9799 18.7793 22.2284 19.0164 21.5977 19.4584C20.967 19.9005 20.4878 20.526 20.225 21.2499H18.75C18.4185 21.2499 18.1005 21.3816 17.8661 21.616C17.6317 21.8504 17.5 22.1684 17.5 22.4999C17.5 22.8314 17.6317 23.1494 17.8661 23.3838C18.1005 23.6182 18.4185 23.7499 18.75 23.7499ZM23.75 21.2499C23.9972 21.2499 24.2389 21.3232 24.4445 21.4606C24.65 21.5979 24.8102 21.7931 24.9048 22.0215C24.9995 22.2499 25.0242 22.5013 24.976 22.7438C24.9278 22.9862 24.8087 23.209 24.6339 23.3838C24.4591 23.5586 24.2363 23.6776 23.9939 23.7259C23.7514 23.7741 23.5001 23.7494 23.2716 23.6547C23.0432 23.5601 22.848 23.3999 22.7107 23.1944C22.5733 22.9888 22.5 22.7471 22.5 22.4999C22.5 22.1684 22.6317 21.8504 22.8661 21.616C23.1005 21.3816 23.4185 21.2499 23.75 21.2499Z" fill="#357266"/>
<path d="M41.25 36.2499H32.275C32.0122 35.526 31.533 34.9005 30.9023 34.4584C30.2716 34.0164 29.5201 33.7793 28.75 33.7793C27.9799 33.7793 27.2284 34.0164 26.5977 34.4584C25.967 34.9005 25.4878 35.526 25.225 36.2499H18.75C18.4185 36.2499 18.1005 36.3816 17.8661 36.616C17.6317 36.8504 17.5 37.1684 17.5 37.4999C17.5 37.8314 17.6317 38.1494 17.8661 38.3838C18.1005 38.6182 18.4185 38.7499 18.75 38.7499H25.225C25.4878 39.4738 25.967 40.0993 26.5977 40.5413C27.2284 40.9834 27.9799 41.2205 28.75 41.2205C29.5201 41.2205 30.2716 40.9834 30.9023 40.5413C31.533 40.0993 32.0122 39.4738 32.275 38.7499H41.25C41.5815 38.7499 41.8995 38.6182 42.1339 38.3838C42.3683 38.1494 42.5 37.8314 42.5 37.4999C42.5 37.1684 42.3683 36.8504 42.1339 36.616C41.8995 36.3816 41.5815 36.2499 41.25 36.2499ZM28.75 38.7499C28.5028 38.7499 28.2611 38.6766 28.0555 38.5392C27.85 38.4019 27.6898 38.2067 27.5951 37.9782C27.5005 37.7498 27.4758 37.4985 27.524 37.256C27.5722 37.0136 27.6913 36.7908 27.8661 36.616C28.0409 36.4412 28.2637 36.3221 28.5061 36.2739C28.7486 36.2257 28.9999 36.2504 29.2284 36.345C29.4568 36.4397 29.652 36.5999 29.7893 36.8054C29.9267 37.011 30 37.2527 30 37.4999C30 37.8314 29.8683 38.1494 29.6339 38.3838C29.3995 38.6182 29.0815 38.7499 28.75 38.7499Z" fill="#357266"/>
</svg>
