<svg width="60" height="60" viewBox="0 0 60 60" fill="none" xmlns="http://www.w3.org/2000/svg">
<path d="M33.75 35H26.25C25.9185 35 25.6005 35.1317 25.3661 35.3661C25.1317 35.6005 25 35.9185 25 36.25C25 36.5815 25.1317 36.8995 25.3661 37.1339C25.6005 37.3683 25.9185 37.5 26.25 37.5H33.75C34.0815 37.5 34.3995 37.3683 34.6339 37.1339C34.8683 36.8995 35 36.5815 35 36.25C35 35.9185 34.8683 35.6005 34.6339 35.3661C34.3995 35.1317 34.0815 35 33.75 35Z" fill="#3066BE"/>
<path d="M26.25 32.5H30C30.3315 32.5 30.6495 32.3683 30.8839 32.1339C31.1183 31.8995 31.25 31.5815 31.25 31.25C31.25 30.9185 31.1183 30.6005 30.8839 30.3661C30.6495 30.1317 30.3315 30 30 30H26.25C25.9185 30 25.6005 30.1317 25.3661 30.3661C25.1317 30.6005 25 30.9185 25 31.25C25 31.5815 25.1317 31.8995 25.3661 32.1339C25.6005 32.3683 25.9185 32.5 26.25 32.5Z" fill="#3066BE"/>
<path d="M39.675 25.4127L32.875 17.9127C32.7581 17.7832 32.6155 17.6796 32.4562 17.6086C32.2968 17.5376 32.1244 17.5006 31.95 17.5002H23.2C22.7847 17.4953 22.3725 17.5722 21.9869 17.7265C21.6013 17.8809 21.2499 18.1097 20.9527 18.3999C20.6556 18.6901 20.4185 19.036 20.255 19.4178C20.0916 19.7996 20.0049 20.2099 20 20.6252V39.3752C20.0049 39.7905 20.0916 40.2008 20.255 40.5826C20.4185 40.9645 20.6556 41.3103 20.9527 41.6005C21.2499 41.8907 21.6013 42.1195 21.9869 42.2739C22.3725 42.4283 22.7847 42.5052 23.2 42.5002H36.8C37.2153 42.5052 37.6275 42.4283 38.0131 42.2739C38.3987 42.1195 38.7501 41.8907 39.0473 41.6005C39.3444 41.3103 39.5815 40.9645 39.745 40.5826C39.9084 40.2008 39.9951 39.7905 40 39.3752V26.2502C39.9992 25.9404 39.8834 25.642 39.675 25.4127ZM32.5 21.2502L35.925 25.0002H33.425C33.2941 24.9923 33.1661 24.9584 33.0484 24.9005C32.9308 24.8426 32.8258 24.7618 32.7397 24.6629C32.6536 24.564 32.5881 24.449 32.5469 24.3244C32.5057 24.1999 32.4898 24.0685 32.5 23.9377V21.2502ZM36.8 40.0002H23.2C23.113 40.0053 23.0258 39.9931 22.9435 39.9644C22.8611 39.9357 22.7853 39.8911 22.7203 39.833C22.6552 39.775 22.6023 39.7046 22.5645 39.6261C22.5267 39.5475 22.5048 39.4623 22.5 39.3752V20.6252C22.5048 20.5382 22.5267 20.4529 22.5645 20.3744C22.6023 20.2958 22.6552 20.2255 22.7203 20.1674C22.7853 20.1094 22.8611 20.0647 22.9435 20.036C23.0258 20.0073 23.113 19.9952 23.2 20.0002H30V23.9377C29.9798 24.8585 30.3247 25.7499 30.9593 26.4173C31.594 27.0847 32.4669 27.474 33.3875 27.5002H37.5V39.3752C37.4952 39.4623 37.4733 39.5475 37.4355 39.6261C37.3977 39.7046 37.3448 39.775 37.2797 39.833C37.2147 39.8911 37.1389 39.9357 37.0565 39.9644C36.9742 39.9931 36.887 40.0053 36.8 40.0002Z" fill="#3066BE"/>
<rect width="60" height="60" rx="15" fill="#3066BE" fill-opacity="0.1"/>
</svg>
