<svg width="60" height="60" viewBox="0 0 60 60" fill="none" xmlns="http://www.w3.org/2000/svg">
<path d="M40 32.4998H34.625L35.5375 27.4998H40C40.3315 27.4998 40.6495 27.3682 40.8839 27.1337C41.1183 26.8993 41.25 26.5814 41.25 26.2498C41.25 25.9183 41.1183 25.6004 40.8839 25.366C40.6495 25.1315 40.3315 24.9998 40 24.9998H35.9875L36.85 20.2373C36.8841 20.0702 36.8836 19.8979 36.8486 19.731C36.8136 19.564 36.7448 19.4061 36.6464 19.2667C36.5481 19.1274 36.4222 19.0096 36.2767 18.9207C36.1311 18.8319 35.9689 18.7737 35.8 18.7498C35.6321 18.7098 35.4577 18.7051 35.2878 18.7358C35.118 18.7665 34.9563 18.8321 34.813 18.9284C34.6698 19.0247 34.548 19.1496 34.4554 19.2953C34.3628 19.441 34.3014 19.6043 34.275 19.7748L33.3375 24.9998H28.4875L29.35 20.2373C29.3841 20.0702 29.3836 19.8979 29.3486 19.731C29.3136 19.564 29.2448 19.4061 29.1464 19.2667C29.0481 19.1274 28.9222 19.0096 28.7767 18.9207C28.6311 18.8319 28.4689 18.7737 28.3 18.7498C28.1321 18.7098 27.9577 18.7051 27.7878 18.7358C27.618 18.7665 27.4563 18.8321 27.313 18.9284C27.1698 19.0247 27.048 19.1496 26.9554 19.2953C26.8628 19.441 26.8014 19.6043 26.775 19.7748L25.8375 24.9998H20C19.6685 24.9998 19.3505 25.1315 19.1161 25.366C18.8817 25.6004 18.75 25.9183 18.75 26.2498C18.75 26.5814 18.8817 26.8993 19.1161 27.1337C19.3505 27.3682 19.6685 27.4998 20 27.4998H25.375L24.4625 32.4998H20C19.6685 32.4998 19.3505 32.6315 19.1161 32.866C18.8817 33.1004 18.75 33.4183 18.75 33.7498C18.75 34.0814 18.8817 34.3993 19.1161 34.6337C19.3505 34.8682 19.6685 34.9998 20 34.9998H24.0125L23.15 39.7623C23.1159 39.9295 23.1164 40.1018 23.1514 40.2687C23.1864 40.4356 23.2552 40.5936 23.3536 40.733C23.4519 40.8723 23.5778 40.9901 23.7233 41.079C23.8689 41.1678 24.0311 41.226 24.2 41.2498C24.3679 41.2899 24.5423 41.2946 24.7122 41.2639C24.882 41.2332 25.0437 41.1676 25.187 41.0713C25.3302 40.975 25.452 40.8501 25.5446 40.7044C25.6372 40.5587 25.6986 40.3954 25.725 40.2248L26.6625 34.9998H31.5125L30.65 39.7623C30.6159 39.9295 30.6164 40.1018 30.6514 40.2687C30.6864 40.4356 30.7552 40.5936 30.8536 40.733C30.9519 40.8723 31.0778 40.9901 31.2233 41.079C31.3689 41.1678 31.5311 41.226 31.7 41.2498C31.8679 41.2899 32.0423 41.2946 32.2122 41.2639C32.382 41.2332 32.5437 41.1676 32.687 41.0713C32.8302 40.975 32.952 40.8501 33.0446 40.7044C33.1372 40.5587 33.1986 40.3954 33.225 40.2248L34.1625 34.9998H40C40.3315 34.9998 40.6495 34.8682 40.8839 34.6337C41.1183 34.3993 41.25 34.0814 41.25 33.7498C41.25 33.4183 41.1183 33.1004 40.8839 32.866C40.6495 32.6315 40.3315 32.4998 40 32.4998ZM27.125 32.4998L28.0375 27.4998H32.875L31.9625 32.4998H27.125Z" fill="#724E91"/>
<rect width="60" height="60" rx="15" fill="#724E91" fill-opacity="0.1"/>
</svg>
