<svg width="60" height="60" viewBox="0 0 60 60" fill="none" xmlns="http://www.w3.org/2000/svg">
<path d="M30.4987 35.1608C31.2769 35.1608 31.9078 34.5299 31.9078 33.7517L31.9079 28.585H36.1351C36.9133 28.585 37.5442 27.9541 37.5442 27.1759V21.5395C37.5442 20.7613 36.9133 20.1304 36.1351 20.1304H31.9077V16.4091C31.9076 15.6309 31.2768 15 30.4985 15C29.7203 15 29.0894 15.6309 29.0894 16.4091V20.1305H24.8622C24.084 20.1305 23.4531 20.7614 23.4531 21.5396V27.176C23.4531 27.9542 24.084 28.5851 24.8622 28.5851H29.0896L29.0895 32.4889C25.998 33.1399 23.6701 35.8889 23.6701 39.1714C23.6702 42.9368 26.7334 46 30.4987 46C34.264 46 37.3273 42.9368 37.3273 39.1713C37.3273 38.3931 36.6964 37.7622 35.9182 37.7622C35.14 37.7622 34.5091 38.3931 34.5091 39.1713C34.5091 41.3827 32.7101 43.1818 30.4987 43.1818C28.2873 43.1818 26.4884 41.3826 26.4884 39.1713C26.4884 36.96 28.2873 35.1608 30.4987 35.1608Z" fill="#F4BE2C"/>
<rect width="60" height="60" rx="15" fill="#F4BE2C" fill-opacity="0.1"/>
</svg>
