<svg width="60" height="60" viewBox="0 0 60 60" fill="none" xmlns="http://www.w3.org/2000/svg">
<path d="M26.25 28.75C27.2389 28.75 28.2056 28.4568 29.0279 27.9074C29.8501 27.3579 30.491 26.5771 30.8694 25.6634C31.2478 24.7498 31.3469 23.7445 31.1539 22.7746C30.961 21.8046 30.4848 20.9137 29.7855 20.2145C29.0863 19.5152 28.1954 19.039 27.2255 18.8461C26.2555 18.6531 25.2502 18.7522 24.3366 19.1306C23.423 19.509 22.6421 20.1499 22.0927 20.9722C21.5432 21.7944 21.25 22.7611 21.25 23.75C21.25 25.0761 21.7768 26.3479 22.7145 27.2855C23.6521 28.2232 24.9239 28.75 26.25 28.75ZM26.25 21.25C26.7445 21.25 27.2278 21.3966 27.6389 21.6713C28.05 21.946 28.3705 22.3365 28.5597 22.7933C28.7489 23.2501 28.7984 23.7528 28.702 24.2377C28.6055 24.7227 28.3674 25.1681 28.0178 25.5178C27.6681 25.8674 27.2227 26.1055 26.7377 26.202C26.2528 26.2984 25.7501 26.2489 25.2933 26.0597C24.8365 25.8705 24.446 25.5501 24.1713 25.1389C23.8966 24.7278 23.75 24.2445 23.75 23.75C23.75 23.087 24.0134 22.4511 24.4822 21.9822C24.9511 21.5134 25.587 21.25 26.25 21.25Z" fill="#00B4D8"/>
<path d="M36.25 31.25C36.9917 31.25 37.7167 31.0301 38.3334 30.618C38.9501 30.206 39.4307 29.6203 39.7146 28.9351C39.9984 28.2498 40.0726 27.4958 39.9279 26.7684C39.7833 26.041 39.4261 25.3728 38.9017 24.8484C38.3772 24.3239 37.709 23.9668 36.9816 23.8221C36.2542 23.6774 35.5002 23.7516 34.8149 24.0355C34.1297 24.3193 33.544 24.7999 33.132 25.4166C32.7199 26.0333 32.5 26.7583 32.5 27.5C32.5 28.4946 32.8951 29.4484 33.5983 30.1517C34.3016 30.8549 35.2554 31.25 36.25 31.25ZM36.25 26.25C36.4972 26.25 36.7389 26.3233 36.9445 26.4607C37.15 26.598 37.3102 26.7932 37.4049 27.0216C37.4995 27.2501 37.5242 27.5014 37.476 27.7439C37.4278 27.9863 37.3087 28.2091 37.1339 28.3839C36.9591 28.5587 36.7363 28.6778 36.4939 28.726C36.2514 28.7742 36.0001 28.7495 35.7716 28.6549C35.5432 28.5602 35.348 28.4 35.2107 28.1945C35.0733 27.9889 35 27.7472 35 27.5C35 27.1685 35.1317 26.8505 35.3661 26.6161C35.6005 26.3817 35.9185 26.25 36.25 26.25Z" fill="#00B4D8"/>
<path d="M36.25 32.4999C34.8648 32.5014 33.5193 32.9631 32.425 33.8124C31.2006 32.5928 29.6426 31.7631 27.9473 31.4279C26.252 31.0927 24.4954 31.267 22.899 31.9288C21.3027 32.5906 19.938 33.7103 18.9772 35.1467C18.0163 36.583 17.5023 38.2718 17.5 39.9999C17.5 40.3314 17.6317 40.6493 17.8661 40.8838C18.1005 41.1182 18.4185 41.2499 18.75 41.2499C19.0815 41.2499 19.3995 41.1182 19.6339 40.8838C19.8683 40.6493 20 40.3314 20 39.9999C20 38.3423 20.6585 36.7526 21.8306 35.5805C23.0027 34.4084 24.5924 33.7499 26.25 33.7499C27.9076 33.7499 29.4973 34.4084 30.6694 35.5805C31.8415 36.7526 32.5 38.3423 32.5 39.9999C32.5 40.3314 32.6317 40.6493 32.8661 40.8838C33.1005 41.1182 33.4185 41.2499 33.75 41.2499C34.0815 41.2499 34.3995 41.1182 34.6339 40.8838C34.8683 40.6493 35 40.3314 35 39.9999C35.003 38.5354 34.633 37.0943 33.925 35.8124C34.4774 35.3759 35.1415 35.1037 35.8414 35.027C36.5413 34.9503 37.2486 35.0721 37.8825 35.3786C38.5163 35.6851 39.0511 36.1638 39.4255 36.76C39.8 37.3562 39.9991 38.0458 40 38.7499C40 39.0814 40.1317 39.3993 40.3661 39.6338C40.6005 39.8682 40.9185 39.9999 41.25 39.9999C41.5815 39.9999 41.8995 39.8682 42.1339 39.6338C42.3683 39.3993 42.5 39.0814 42.5 38.7499C42.5 37.0923 41.8415 35.5026 40.6694 34.3305C39.4973 33.1584 37.9076 32.4999 36.25 32.4999Z" fill="#00B4D8"/>
<rect width="60" height="60" rx="15" fill="#00B4D8" fill-opacity="0.1"/>
</svg>
