<svg width="30" height="30" viewBox="0 0 30 30" fill="none" xmlns="http://www.w3.org/2000/svg">
<path d="M26.2498 8.75C26.2616 8.6629 26.2616 8.5746 26.2498 8.4875C26.2389 8.41411 26.2178 8.34259 26.1873 8.275C26.1542 8.21391 26.1166 8.15541 26.0748 8.1C26.0272 8.02094 25.9682 7.94934 25.8998 7.8875L25.7498 7.8C25.6776 7.7462 25.5975 7.70402 25.5123 7.675H25.2623C25.1861 7.60124 25.0971 7.54195 24.9998 7.5H18.7498C18.4182 7.5 18.1003 7.6317 17.8659 7.86612C17.6315 8.10054 17.4998 8.41848 17.4998 8.75C17.4998 9.08152 17.6315 9.39946 17.8659 9.63388C18.1003 9.8683 18.4182 10 18.7498 10H22.2873L17.2873 15.8875L11.8873 12.675C11.6315 12.5229 11.3298 12.467 11.0365 12.5174C10.7432 12.5678 10.4776 12.7212 10.2873 12.95L4.03726 20.45C3.93201 20.5763 3.85271 20.7221 3.8039 20.8791C3.7551 21.0362 3.73774 21.2012 3.75284 21.365C3.76793 21.5287 3.81518 21.6878 3.89187 21.8333C3.96856 21.9787 4.07319 22.1076 4.19976 22.2125C4.42465 22.3989 4.70769 22.5006 4.99976 22.5C5.1834 22.5003 5.36485 22.4601 5.5312 22.3824C5.69756 22.3046 5.84473 22.1911 5.96226 22.05L11.5248 15.375L16.8623 18.575C17.1154 18.7252 17.4135 18.7812 17.7039 18.7331C17.9943 18.6851 18.2584 18.5362 18.4498 18.3125L23.7498 12.125V15C23.7498 15.3315 23.8815 15.6495 24.1159 15.8839C24.3503 16.1183 24.6682 16.25 24.9998 16.25C25.3313 16.25 25.6492 16.1183 25.8836 15.8839C26.1181 15.6495 26.2498 15.3315 26.2498 15V8.75Z" fill="#4ECDC4"/>
</svg>
