<svg width="30" height="30" viewBox="0 0 30 30" fill="none" xmlns="http://www.w3.org/2000/svg">
<path d="M16.25 2.5C15.9185 2.5 15.6005 2.6317 15.3661 2.86612C15.1317 3.10054 15 3.41848 15 3.75V13.75C15 14.0815 15.1317 14.3995 15.3661 14.6339C15.6005 14.8683 15.9185 15 16.25 15H26.25C26.5815 15 26.8995 14.8683 27.1339 14.6339C27.3683 14.3995 27.5 14.0815 27.5 13.75C27.5 10.7663 26.3147 7.90483 24.205 5.79505C22.0952 3.68526 19.2337 2.5 16.25 2.5ZM17.5 12.5V5.0875C19.3703 5.35702 21.103 6.22472 22.4391 7.56085C23.7753 8.89698 24.643 10.6297 24.9125 12.5H17.5Z" fill="#0A9D7A"/>
<path d="M26.0251 17.575C25.87 17.5196 25.7054 17.4954 25.5409 17.5037C25.3765 17.512 25.2152 17.5528 25.0665 17.6237C24.9179 17.6945 24.7846 17.7941 24.6746 17.9166C24.5645 18.0391 24.4797 18.1821 24.4251 18.3375C23.8617 19.9299 22.9042 21.3537 21.6419 22.476C20.3796 23.5983 18.8535 24.3825 17.2061 24.7556C15.5587 25.1286 13.8437 25.0783 12.221 24.6093C10.5983 24.1404 9.12086 23.268 7.92648 22.0736C6.73211 20.8792 5.85973 19.4018 5.39074 17.7791C4.92175 16.1564 4.87144 14.4414 5.24449 12.794C5.61753 11.1466 6.40179 9.62053 7.52409 8.35818C8.64639 7.09584 10.0702 6.13835 11.6626 5.57503C11.9758 5.46563 12.2328 5.23626 12.377 4.93737C12.5212 4.63848 12.5407 4.29457 12.4313 3.98128C12.3219 3.66799 12.0925 3.411 11.7936 3.26683C11.4948 3.12266 11.1508 3.10313 10.8376 3.21253C8.84635 3.916 7.06584 5.11249 5.66219 6.69031C4.25855 8.26813 3.27753 10.1758 2.8107 12.2354C2.34387 14.295 2.40645 16.4392 2.9926 18.4681C3.57875 20.4969 4.66936 22.3442 6.16263 23.8375C7.65591 25.3307 9.50317 26.4213 11.532 27.0075C13.5608 27.5936 15.7051 27.6562 17.7647 27.1894C19.8242 26.7226 21.732 25.7415 23.3098 24.3379C24.8876 22.9342 26.0841 21.1537 26.7876 19.1625C26.8957 18.8509 26.8762 18.5091 26.7333 18.2117C26.5905 17.9143 26.3359 17.6855 26.0251 17.575Z" fill="#0A9D7A"/>
</svg>
