<svg width="30" height="30" viewBox="0 0 30 30" fill="none" xmlns="http://www.w3.org/2000/svg">
<path d="M23.3875 17.8625C23.1521 17.6271 22.8329 17.4949 22.5 17.4949C22.1671 17.4949 21.8479 17.6271 21.6125 17.8625C21.3771 18.0979 21.2449 18.4171 21.2449 18.75C21.2449 19.0829 21.3771 19.4021 21.6125 19.6375L21.975 20H20C18.6739 20 17.4021 19.4732 16.4645 18.5355C15.5268 17.5978 15 16.3261 15 15C15 13.6739 15.5268 12.4021 16.4645 11.4645C17.4021 10.5268 18.6739 9.99999 20 9.99999H21.9875L21.6125 10.3625C21.4953 10.4787 21.4023 10.6169 21.3389 10.7693C21.2754 10.9216 21.2428 11.085 21.2428 11.25C21.2428 11.415 21.2754 11.5784 21.3389 11.7307C21.4023 11.883 21.4953 12.0213 21.6125 12.1375C21.7293 12.2533 21.8678 12.345 22.0201 12.4072C22.1724 12.4694 22.3355 12.5009 22.5 12.5C22.6645 12.5009 22.8276 12.4694 22.9799 12.4072C23.1322 12.345 23.2707 12.2533 23.3875 12.1375L25.8875 9.63749C26.0034 9.52069 26.095 9.38217 26.1572 9.22987C26.2194 9.07757 26.251 8.9145 26.25 8.74999C26.251 8.58548 26.2194 8.4224 26.1572 8.2701C26.095 8.11781 26.0034 7.97929 25.8875 7.86249L23.3875 5.36249C23.271 5.24594 23.1326 5.15349 22.9803 5.09041C22.828 5.02734 22.6648 4.99487 22.5 4.99487C22.1671 4.99487 21.8479 5.12711 21.6125 5.36249C21.3771 5.59787 21.2449 5.91711 21.2449 6.24999C21.2449 6.58286 21.3771 6.90211 21.6125 7.13749L21.975 7.49999H20C18.7616 7.50089 17.5427 7.80844 16.4521 8.39518C15.3615 8.98192 14.4332 9.82958 13.75 10.8625C13.0668 9.82958 12.1385 8.98192 11.0479 8.39518C9.95731 7.80844 8.7384 7.50089 7.5 7.49999H5C4.66848 7.49999 4.35054 7.63168 4.11612 7.8661C3.8817 8.10052 3.75 8.41847 3.75 8.74999C3.75 9.08151 3.8817 9.39945 4.11612 9.63387C4.35054 9.86829 4.66848 9.99999 5 9.99999H7.5C8.82608 9.99999 10.0979 10.5268 11.0355 11.4645C11.9732 12.4021 12.5 13.6739 12.5 15C12.5 16.3261 11.9732 17.5978 11.0355 18.5355C10.0979 19.4732 8.82608 20 7.5 20H5C4.66848 20 4.35054 20.1317 4.11612 20.3661C3.8817 20.6005 3.75 20.9185 3.75 21.25C3.75 21.5815 3.8817 21.8995 4.11612 22.1339C4.35054 22.3683 4.66848 22.5 5 22.5H7.5C8.7384 22.4991 9.95731 22.1915 11.0479 21.6048C12.1385 21.0181 13.0668 20.1704 13.75 19.1375C14.4332 20.1704 15.3615 21.0181 16.4521 21.6048C17.5427 22.1915 18.7616 22.4991 20 22.5H21.9875L21.6125 22.8625C21.4953 22.9787 21.4023 23.1169 21.3389 23.2693C21.2754 23.4216 21.2428 23.585 21.2428 23.75C21.2428 23.915 21.2754 24.0784 21.3389 24.2307C21.4023 24.383 21.4953 24.5213 21.6125 24.6375C21.7293 24.7533 21.8678 24.845 22.0201 24.9072C22.1724 24.9694 22.3355 25.0009 22.5 25C22.6645 25.0009 22.8276 24.9694 22.9799 24.9072C23.1322 24.845 23.2707 24.7533 23.3875 24.6375L25.8875 22.1375C26.0034 22.0207 26.095 21.8822 26.1572 21.7299C26.2194 21.5776 26.251 21.4145 26.25 21.25C26.251 21.0855 26.2194 20.9224 26.1572 20.7701C26.095 20.6178 26.0034 20.4793 25.8875 20.3625L23.3875 17.8625Z" fill="#E03B8B"/>
</svg>
